<?xml version="1.0" standalone="yes"?>
<svg xmlns="http://www.w3.org/2000/svg" width="512" height="512">
<path style="fill:#04aeda; stroke:none;" d="M0 0L0 512L512 512L512 0L0 0z"/>
<path style="fill:#d5f1f9; stroke:none;" d="M34 77L34 325C36.1889 319.784 35 312.619 35 307L35 270L35 139L35 97C35 90.846 36.3949 82.7072 34 77z"/>
<path style="fill:#ffffff; stroke:none;" d="M35 77L35 325L85 325C83.4494 318.487 84 311.659 84 305L84 274L84 174L84 138C84 134.306 82.728 127.479 85.6034 124.603C89.1122 121.095 99.4098 123 104 123L155 123L359 123L359 77L35 77z"/>
<path style="fill:#a2e1f1; stroke:none;" d="M359 77L359 124C360.552 120.301 360 115.983 360 112L360 90C360 85.7397 360.661 80.9586 359 77z"/>
<path style="fill:#b2e6f4; stroke:none;" d="M85 123C91.9187 125.903 102.52 124 110 124L166 124L359 124C352.081 121.097 341.48 123 334 123L278 123L85 123z"/>
<path style="fill:#e7f7fc; stroke:none;" d="M84 124L84 324C85.8752 319.531 85 313.809 85 309L85 279L85 174L85 140C85 134.92 85.9806 128.72 84 124z"/>
<path style="fill:#29bae0; stroke:none;" d="M85 124L85 325C86.8752 320.531 86 314.809 86 310L86 280L86 175L86 141C86 135.65 87.0851 128.969 85 124z"/>
<path style="fill:#1db6de; stroke:none;" d="M86 124C92.9187 126.903 103.52 125 111 125L167 125L360 125C353.081 122.097 342.48 124 335 124L279 124L86 124z"/>
<path style="fill:#0fb1dc; stroke:none;" d="M92 380C94.7007 373.564 93 363.951 93 357L93 307L93 132L419 132C412.564 129.299 402.951 131 396 131L345 131L169 131L112 131C107.765 131 95.918 128.954 93.0278 132.603C90.2207 136.148 92 145.68 92 150L92 197L92 380z"/>
<path style="fill:#a8e3f2; stroke:none;" d="M93 132L93 380C95.3949 374.293 94 366.154 94 360L94 318L94 187L94 150C94 144.381 95.1889 137.216 93 132z"/>
<path style="fill:#ffffff; stroke:none;" d="M94 132L94 380L144 380L144 231L144 193C144 189.306 142.728 182.479 145.603 179.603C149.112 176.095 159.41 178 164 178L215 178L418 178L418 132L94 132z"/>
<path style="fill:#a8e3f2; stroke:none;" d="M418 132L418 178C419.661 174.041 419 169.26 419 165L419 144C419 140.017 419.552 135.699 418 132z"/>
<path style="fill:#94dcef; stroke:none;" d="M145 178C151.919 180.903 162.52 179 170 179L226 179L419 179C412.081 176.097 401.48 178 394 178L338 178L145 178z"/>
<path style="fill:#77d3eb; stroke:none;" d="M144 179L144 380C146.085 375.031 145 368.35 145 363L145 329L145 224L145 194C145 189.191 145.875 183.469 144 179z"/>
<path style="fill:#38bfe2; stroke:none;" d="M152 186C159.879 189.306 172.466 187 181 187L248 187L478 187C470.121 183.694 457.534 186 449 186L382 186L152 186z"/>
<path style="fill:#a2e1f1; stroke:none;" d="M152 187L152 435C154.395 429.293 153 421.154 153 415L153 373L153 242L153 205C153 199.381 154.189 192.217 152 187z"/>
<path style="fill:#ffffff; stroke:none;" d="M153 187L153 435L477 435L477 187L153 187z"/>
<path style="fill:#d5f1f9; stroke:none;" d="M477 187L477 435C479.189 429.783 478 422.619 478 417L478 380L478 249L478 207C478 200.846 479.395 192.707 477 187z"/>
<path style="fill:#38bfe2; stroke:none;" d="M34 325C38.9691 327.085 45.6497 326 51 326L85 326C80.0309 323.915 73.3503 325 68 325L34 325z"/>
</svg>
